<svg width="96" height="30" viewBox="0 0 96 30" fill="none" xmlns="http://www.w3.org/2000/svg">
<script xmlns=""/>
    <path d="M48.4326 12.9678C53.0023 12.9678 56.7414 16.5681 56.9492 21.207C57.1568 25.8459 53.4874 29.8624 48.7793 30.001H48.4326C43.863 30.0008 40.0546 26.3303 39.916 21.7607C39.7085 17.1219 43.3788 13.1063 48.0869 12.9678H48.4326ZM31.8848 13.5908C34.5158 13.5908 36.3162 14.353 38.3242 16.7764L35.6934 18.7148C33.0623 15.5991 28.0078 16.8453 28.0078 21.415C28.008 23.4921 29.3924 25.7773 31.9541 25.7773C33.3388 25.7773 35.347 25.4304 35.6934 23.3535H30.0156V20.3066H39.2236C39.2928 21.0681 39.293 21.2766 39.293 21.415C39.2928 26.4001 36.2467 29.1699 31.8848 29.1699C26.8997 29.1699 24.1994 25.3615 24.1992 21.415C24.1992 17.3992 26.8995 13.5908 31.8848 13.5908ZM15.8906 24.0459C15.8908 25.292 16.8599 25.8466 17.8291 25.8467C18.7984 25.8467 19.6981 25.2228 19.6982 24.0459V13.7295H23.5068V24.0459C23.5067 27.4384 20.5985 29.1006 17.7598 29.1006C14.9211 29.1005 12.0129 27.4383 12.0127 24.0459V13.7295H15.8906V24.0459ZM5.43555 13.7295C9.31281 13.7296 11.1826 16.4989 11.1826 19.1992C11.1133 21.8994 9.24354 24.5302 5.50488 24.5303H4.25879V28.8926H0.450195V13.7295H5.43555ZM66.7119 17.0527H61.2422V20.0303H65.6738V23.2842H61.2422V28.8926H57.5029V13.7295H66.7119V17.0527ZM71.4209 18.9912L75.7129 13.7295H80.1445L74.3975 20.792L80.1445 28.8926H75.7822L71.7666 23.2842L71.3506 23.7002V28.8232H67.543V13.7295H71.4209V18.9912ZM96 28.8926H91.915L90.6689 25.2227H85.8906L84.7832 28.8926H80.6982L85.8223 13.7295H90.8066L96 28.8926ZM48.2256 16.2217C45.3175 16.2909 43.0324 18.715 43.1709 21.623C43.2405 24.4614 45.5249 26.6766 48.3633 26.6768H48.5713C51.4792 26.6075 53.7643 24.1843 53.626 21.2764C53.5567 18.4376 51.2714 16.2217 48.4326 16.2217H48.2256ZM49.1943 22.4531C49.6098 22.3839 50.0256 22.5924 50.1641 23.0078C50.302 23.4229 50.0253 23.838 49.6104 23.9766C49.195 24.115 48.7792 23.8381 48.6406 23.4229C48.5022 23.0075 48.779 22.5916 49.1943 22.4531ZM46.1484 20.792C46.5638 20.6538 46.9787 20.9304 47.1172 21.3457C47.2554 21.761 46.9788 22.177 46.5635 22.3154C46.1482 22.4537 45.7323 22.176 45.5938 21.7607C45.4556 21.3455 45.7332 20.9305 46.1484 20.792ZM86.9297 21.8301H89.6992L88.3838 16.9141H88.2461L86.9297 21.8301ZM4.12012 21.4844H5.43555C6.7509 21.4843 7.44325 20.3762 7.44336 19.1992C7.44334 18.0914 6.82021 16.9141 5.43555 16.9141H4.12012V21.4844ZM49.125 18.9912C49.6095 18.8528 50.0253 19.1297 50.0947 19.5449C50.233 19.9601 49.9562 20.3761 49.541 20.5146C49.1257 20.653 48.7099 20.3761 48.5713 19.9609C48.4328 19.5456 48.7097 19.1298 49.125 18.9912ZM22.6973 2.13867C23.1774 2.13867 23.6065 2.25944 23.9834 2.50195C24.3603 2.74459 24.6558 3.09498 24.8701 3.55176C25.087 4.00881 25.1953 4.55919 25.1953 5.20215C25.1953 5.84514 25.0884 6.39679 24.874 6.85645C24.6597 7.31328 24.3655 7.66625 23.9912 7.91406C23.6169 8.15919 23.1891 8.28125 22.709 8.28125C22.3478 8.2812 22.052 8.22084 21.8223 8.09961C21.5952 7.97829 21.4162 7.83641 21.2871 7.67383C21.1581 7.51123 21.0589 7.36573 20.9893 7.23926H20.9199V10.3965H19.7617V2.21582H20.8926V3.18066H20.9893C21.0564 3.05677 21.1528 2.9126 21.2793 2.75C21.4058 2.5874 21.5822 2.44554 21.8066 2.32422C22.0312 2.20038 22.3283 2.13874 22.6973 2.13867ZM10.4033 2.13867C10.6406 2.1387 10.8925 2.16692 11.1582 2.22363C11.4266 2.27784 11.6778 2.37831 11.9102 2.52539C12.145 2.67254 12.3376 2.88365 12.4873 3.15723C12.637 3.42833 12.7119 3.78117 12.7119 4.21484V8.16504H11.5801V7.35156H11.5342C11.4593 7.50128 11.347 7.64939 11.1973 7.79395C11.0475 7.93842 10.8549 8.05882 10.6201 8.1543C10.3852 8.24973 10.1032 8.29688 9.77539 8.29688C9.3986 8.2968 9.05749 8.22726 8.75293 8.08789C8.4484 7.94587 8.20642 7.74013 8.02832 7.47168C7.85299 7.20324 7.76563 6.874 7.76562 6.48438C7.76562 6.14878 7.82995 5.87216 7.95898 5.65527C8.08794 5.43868 8.26236 5.26708 8.48145 5.14062C8.70083 5.01416 8.9468 4.91807 9.21777 4.85352C9.48875 4.789 9.76558 4.73962 10.0469 4.70605C10.4028 4.66479 10.6921 4.63128 10.9141 4.60547C11.1359 4.57709 11.2977 4.5316 11.3984 4.46973C11.4991 4.40774 11.5498 4.30735 11.5498 4.16797V4.14062C11.5498 3.80247 11.4537 3.54037 11.2627 3.35449C11.0743 3.1689 10.7929 3.07624 10.4189 3.07617C10.0295 3.07624 9.72161 3.16222 9.49707 3.33496C9.2753 3.50522 9.12135 3.69539 9.03613 3.9043L7.94727 3.65625C8.07633 3.29505 8.26502 3.00321 8.5127 2.78125C8.76307 2.55668 9.05175 2.39369 9.37695 2.29297C9.70205 2.18982 10.0447 2.13871 10.4033 2.13867ZM28.8525 2.13867C29.0899 2.13869 29.3418 2.16693 29.6074 2.22363C29.8759 2.27784 30.1271 2.37831 30.3594 2.52539C30.5943 2.67255 30.7868 2.88362 30.9365 3.15723C31.0862 3.42834 31.1611 3.78115 31.1611 4.21484V8.16504H30.0303V7.35156H29.9834C29.9085 7.50128 29.7962 7.64939 29.6465 7.79395C29.4968 7.93839 29.3041 8.05883 29.0693 8.1543C28.8344 8.24971 28.5523 8.29688 28.2246 8.29688C27.8479 8.29679 27.5067 8.22725 27.2021 8.08789C26.8977 7.94587 26.6556 7.7401 26.4775 7.47168C26.3022 7.20325 26.2148 6.87397 26.2148 6.48438C26.2148 6.14878 26.2792 5.87216 26.4082 5.65527C26.5371 5.43869 26.7116 5.26709 26.9307 5.14062C27.15 5.01416 27.396 4.91807 27.667 4.85352C27.938 4.78899 28.2148 4.73962 28.4961 4.70605C28.852 4.66479 29.1413 4.63128 29.3633 4.60547C29.5851 4.57709 29.7469 4.5316 29.8477 4.46973C29.9483 4.40775 29.999 4.30738 29.999 4.16797V4.14062C29.999 3.80247 29.903 3.54037 29.7119 3.35449C29.5235 3.16891 29.2421 3.07623 28.8682 3.07617C28.4786 3.07624 28.1708 3.16219 27.9463 3.33496C27.7245 3.50523 27.5706 3.69537 27.4854 3.9043L26.3965 3.65625C26.5255 3.29506 26.7143 3.00321 26.9619 2.78125C27.2123 2.55668 27.501 2.39369 27.8262 2.29297C28.1513 2.18979 28.4939 2.13871 28.8525 2.13867ZM59.7217 2.13867C59.9591 2.13867 60.2117 2.16688 60.4775 2.22363C60.7458 2.27783 60.9964 2.37845 61.2285 2.52539C61.4635 2.67255 61.6559 2.88359 61.8057 3.15723C61.9554 3.42836 62.0303 3.78106 62.0303 4.21484V8.16504H60.8994V7.35156H60.8525C60.7777 7.50128 60.6653 7.64939 60.5156 7.79395C60.3659 7.9383 60.1732 8.05888 59.9385 8.1543C59.7037 8.24958 59.4221 8.29684 59.0947 8.29688C58.718 8.29682 58.3768 8.22717 58.0723 8.08789C57.7677 7.94587 57.5258 7.74013 57.3477 7.47168C57.1722 7.2032 57.084 6.8741 57.084 6.48438C57.084 6.14881 57.1483 5.87215 57.2773 5.65527C57.4064 5.43849 57.5815 5.26714 57.8008 5.14062C58.0201 5.01422 58.2653 4.91807 58.5361 4.85352C58.8071 4.78901 59.084 4.73962 59.3652 4.70605C59.7214 4.66477 60.0114 4.63128 60.2334 4.60547C60.4551 4.57709 60.6171 4.53158 60.7178 4.46973C60.8182 4.40773 60.8682 4.30719 60.8682 4.16797V4.14062C60.8681 3.80252 60.773 3.54036 60.582 3.35449C60.3935 3.16872 60.1116 3.07617 59.7373 3.07617C59.3477 3.07625 59.04 3.16207 58.8154 3.33496C58.5936 3.50527 58.4397 3.69532 58.3545 3.9043L57.2656 3.65625C57.3947 3.29497 57.5843 3.00325 57.832 2.78125C58.0823 2.5568 58.3702 2.39366 58.6953 2.29297C59.0205 2.18974 59.363 2.13873 59.7217 2.13867ZM75.0078 2.13867C75.2451 2.13869 75.497 2.16693 75.7627 2.22363C76.0311 2.27784 76.2823 2.37831 76.5146 2.52539C76.7495 2.67255 76.9421 2.88363 77.0918 3.15723C77.2415 3.42833 77.3164 3.78116 77.3164 4.21484V8.16504H76.1855V7.35156H76.1387C76.0638 7.50128 75.9515 7.64939 75.8018 7.79395C75.652 7.93841 75.4594 8.05883 75.2246 8.1543C74.9897 8.24972 74.7076 8.29688 74.3799 8.29688C74.0031 8.2968 73.662 8.22726 73.3574 8.08789C73.0529 7.94587 72.8109 7.74011 72.6328 7.47168C72.4575 7.20324 72.3701 6.87399 72.3701 6.48438C72.3701 6.14878 72.4344 5.87216 72.5635 5.65527C72.6924 5.43869 72.8669 5.26709 73.0859 5.14062C73.3053 5.01416 73.5513 4.91807 73.8223 4.85352C74.0933 4.78899 74.37 4.73962 74.6514 4.70605C75.0072 4.66479 75.2966 4.63128 75.5186 4.60547C75.7404 4.57709 75.9022 4.5316 76.0029 4.46973C76.1036 4.40775 76.1543 4.30737 76.1543 4.16797V4.14062C76.1542 3.80247 76.0582 3.54037 75.8672 3.35449C75.6787 3.16891 75.3974 3.07624 75.0234 3.07617C74.6339 3.07624 74.3261 3.1622 74.1016 3.33496C73.8798 3.50523 73.7258 3.69538 73.6406 3.9043L72.5518 3.65625C72.6808 3.29505 72.8695 3.00321 73.1172 2.78125C73.3676 2.55668 73.6562 2.39369 73.9814 2.29297C74.3066 2.1898 74.6492 2.13871 75.0078 2.13867ZM93.0098 2.13867C93.2471 2.13869 93.499 2.16693 93.7646 2.22363C94.0331 2.27784 94.2843 2.37831 94.5166 2.52539C94.7515 2.67254 94.944 2.88364 95.0938 3.15723C95.2434 3.42833 95.3184 3.78117 95.3184 4.21484V8.16504H94.1875V7.35156H94.1406C94.0657 7.50128 93.9534 7.64939 93.8037 7.79395C93.654 7.93841 93.4614 8.05882 93.2266 8.1543C92.9917 8.24973 92.7096 8.29688 92.3818 8.29688C92.0051 8.2968 91.6639 8.22726 91.3594 8.08789C91.0549 7.94587 90.8129 7.74012 90.6348 7.47168C90.4594 7.20324 90.3721 6.87399 90.3721 6.48438C90.3721 6.14878 90.4364 5.87216 90.5654 5.65527C90.6944 5.43869 90.8688 5.26709 91.0879 5.14062C91.3073 5.01416 91.5532 4.91807 91.8242 4.85352C92.0952 4.789 92.372 4.73962 92.6533 4.70605C93.0092 4.66479 93.2986 4.63128 93.5205 4.60547C93.7423 4.57709 93.9042 4.5316 94.0049 4.46973C94.1055 4.40774 94.1562 4.30736 94.1562 4.16797V4.14062C94.1562 3.80247 94.0602 3.54037 93.8691 3.35449C93.6807 3.1689 93.3994 3.07624 93.0254 3.07617C92.6359 3.07624 92.3281 3.16221 92.1035 3.33496C91.8817 3.50522 91.7278 3.69538 91.6426 3.9043L90.5537 3.65625C90.6828 3.29505 90.8715 3.00321 91.1191 2.78125C91.3695 2.55668 91.6582 2.39369 91.9834 2.29297C92.3085 2.18981 92.6511 2.13871 93.0098 2.13867ZM16.2764 2.13867C16.7177 2.13869 17.1002 2.20967 17.4229 2.35156C17.7455 2.49354 17.9944 2.6901 18.1699 2.94043C18.3481 3.19086 18.4375 3.47843 18.4375 3.80371C18.4375 4.13151 18.3396 4.40025 18.1436 4.60938C17.9499 4.81584 17.6961 4.96434 17.3838 5.05469V5.11719C17.6135 5.13267 17.818 5.20235 17.9961 5.32617C18.1742 5.45008 18.3134 5.61447 18.4141 5.81836C18.5147 6.02234 18.5654 6.25353 18.5654 6.51172C18.5654 6.87571 18.465 7.19112 18.2637 7.45703C18.0649 7.72279 17.7881 7.92772 17.4346 8.07227C17.0835 8.21419 16.6812 8.28516 16.2295 8.28516C15.7908 8.28509 15.3963 8.21687 15.0479 8.08008C14.7022 7.94066 14.4275 7.74406 14.2236 7.49121C14.0223 7.23819 13.9143 6.9387 13.9014 6.59277H15.0869C15.1024 6.83529 15.2124 7.02262 15.416 7.1543C15.6224 7.2859 15.8902 7.35146 16.2178 7.35156C16.5507 7.35156 16.8354 7.28057 17.0703 7.13867C17.3052 6.99406 17.4229 6.7708 17.4229 6.46875C17.4228 6.28803 17.3775 6.13035 17.2871 5.99609C17.1993 5.8594 17.0737 5.75353 16.9111 5.67871C16.7512 5.60401 16.561 5.56641 16.3418 5.56641H15.374V4.65625H16.3418C16.6696 4.65625 16.9154 4.58124 17.0781 4.43164C17.2407 4.28195 17.3222 4.09462 17.3223 3.87012C17.3223 3.62744 17.2341 3.43233 17.0586 3.28516C16.8856 3.13553 16.6437 3.06055 16.334 3.06055C16.0193 3.06066 15.7569 3.13152 15.5479 3.27344C15.339 3.41282 15.2291 3.59356 15.2188 3.81543H14.0488C14.0566 3.48263 14.1573 3.19075 14.3506 2.94043C14.5468 2.68746 14.8112 2.491 15.1416 2.35156C15.4745 2.20965 15.8531 2.13872 16.2764 2.13867ZM37.7734 0.732422C37.5954 0.894789 37.3929 1.0114 37.166 1.08105C36.9414 1.14812 36.6809 1.19092 36.3867 1.20898C36.0926 1.22446 35.7552 1.23808 35.376 1.25098C34.9476 1.26396 34.5945 1.35735 34.3184 1.53027C34.0424 1.70065 33.8293 1.95377 33.6797 2.28906C33.5326 2.62206 33.4365 3.04066 33.3926 3.54395H33.4668C33.6604 3.17502 33.9293 2.89909 34.2725 2.71582C34.6184 2.53254 35.0074 2.44049 35.4385 2.44043C35.9185 2.44048 36.3464 2.55021 36.7207 2.76953C37.095 2.98899 37.3892 3.31105 37.6035 3.73438C37.8203 4.15517 37.9287 4.67013 37.9287 5.2793C37.9287 5.89647 37.8151 6.43056 37.5879 6.87988C37.3632 7.32894 37.0452 7.67666 36.6348 7.92188C36.227 8.16428 35.7452 8.28513 35.1904 8.28516C34.6354 8.28509 34.1504 8.16057 33.7373 7.91016C33.3269 7.65709 33.0084 7.28175 32.7812 6.78613C32.5567 6.29039 32.4443 5.67823 32.4443 4.9502V4.36133C32.4444 3.00088 32.6866 1.97687 33.1719 1.29004C33.6572 0.603358 34.3833 0.250701 35.3486 0.232422C35.6608 0.224682 35.9404 0.223368 36.1855 0.228516C36.4307 0.231096 36.6459 0.219139 36.8291 0.193359C37.0147 0.164942 37.1701 0.100508 37.2939 0L37.7734 0.732422ZM41.7285 2.13867C42.2861 2.13867 42.7738 2.26597 43.1895 2.52148C43.605 2.77708 43.9274 3.13658 44.1572 3.59863C44.3871 4.06087 44.502 4.6006 44.502 5.21777C44.5019 5.83234 44.387 6.36946 44.1572 6.8291C43.9274 7.28856 43.605 7.64675 43.1895 7.90234C42.7738 8.15786 42.2861 8.28516 41.7285 8.28516C41.1711 8.28506 40.6841 8.1578 40.2686 7.90234C39.853 7.64671 39.5296 7.28863 39.2998 6.8291C39.0701 6.36952 38.9551 5.83222 38.9551 5.21777C38.9551 4.60073 39.0701 4.0608 39.2998 3.59863C39.5296 3.13652 39.853 2.77712 40.2686 2.52148C40.6841 2.26603 41.1711 2.13877 41.7285 2.13867ZM68.9541 2.13867C69.4058 2.13867 69.8094 2.22192 70.1631 2.38965C70.5166 2.5548 70.8017 2.78768 71.0186 3.08691C71.238 3.38638 71.3688 3.7366 71.4102 4.13672H70.2832C70.2212 3.85797 70.0784 3.61833 69.8564 3.41699C69.637 3.21572 69.3428 3.11426 68.9736 3.11426C68.6511 3.11435 68.3676 3.19977 68.125 3.37012C67.8851 3.53795 67.6976 3.77861 67.5635 4.09082C67.4294 4.40055 67.3623 4.76723 67.3623 5.19043C67.3623 5.62397 67.428 5.99857 67.5596 6.31348C67.6911 6.62824 67.8773 6.87291 68.1172 7.0459C68.3598 7.21883 68.6459 7.30558 68.9736 7.30566C69.193 7.30566 69.3922 7.26549 69.5703 7.18555C69.751 7.10296 69.9021 6.98524 70.0234 6.83301C70.1473 6.68072 70.2341 6.49741 70.2832 6.2832H71.4102C71.3688 6.66784 71.2433 7.01143 71.0342 7.31348C70.825 7.6154 70.5444 7.85344 70.1934 8.02637C69.8449 8.19909 69.4354 8.28516 68.9658 8.28516C68.3903 8.28507 67.8941 8.15521 67.4785 7.89453C67.0655 7.63115 66.7474 7.26778 66.5254 6.80566C66.3035 6.34354 66.1924 5.81408 66.1924 5.21777C66.1924 4.61369 66.3061 4.0803 66.5332 3.61816C66.7604 3.15347 67.0811 2.7901 67.4941 2.5293C67.9071 2.26867 68.3941 2.13877 68.9541 2.13867ZM50.0986 3.21484H48.1572V8.16602H47.0264V3.21484H45.0781V2.21582H50.0986V3.21484ZM52.4814 4.71094H53.0391L55.0029 2.21582H56.4365L54.1318 5.10938L56.4629 8.16602H55.0264L53.2334 5.78711H52.4814V8.16602H51.3232V2.21582H52.4814V4.71094ZM89.7021 3.21484H87.7617V8.16602H86.6309V3.21484H84.6826V2.21582H89.7021V3.21484ZM4.04102 0.232422C4.65793 0.232444 5.16987 0.344825 5.5752 0.569336C5.98041 0.793935 6.28397 1.10148 6.48535 1.49121C6.68677 1.87856 6.78711 2.31531 6.78711 2.80078C6.7871 3.28881 6.68544 3.72825 6.48145 4.11816C6.28004 4.50528 5.97518 4.81288 5.56738 5.04004C5.16205 5.26455 4.65146 5.37694 4.03711 5.37695H2.41016V8.16504H1.21289V0.232422H4.04102ZM79.9941 6.54297L82.6162 2.21582H83.8633V8.16504H82.7285V3.83496L80.1172 8.16504H78.8584V2.21582H79.9941V6.54297ZM11.5537 5.25293C11.5123 5.29414 11.432 5.33307 11.3135 5.36914C11.1974 5.40266 11.0637 5.43222 10.9141 5.45801C10.7645 5.48121 10.6184 5.50281 10.4766 5.52344C10.3347 5.54149 10.2156 5.55741 10.1201 5.57031C9.89569 5.59873 9.68967 5.64679 9.50391 5.71387C9.32099 5.78099 9.17335 5.87758 9.0625 6.00391C8.95422 6.12782 8.90039 6.29358 8.90039 6.5C8.90043 6.78639 9.00631 7.00323 9.21777 7.15039C9.42943 7.29493 9.69959 7.36712 10.0273 7.36719C10.3474 7.36718 10.6215 7.30413 10.8486 7.17773C11.0783 7.05125 11.2523 6.88552 11.3711 6.68164C11.4924 6.47507 11.5537 6.2545 11.5537 6.01953V5.25293ZM30.0029 5.25293C29.9615 5.29413 29.8812 5.33308 29.7627 5.36914C29.6466 5.40266 29.5129 5.43222 29.3633 5.45801C29.2138 5.4812 29.0676 5.50282 28.9258 5.52344C28.784 5.54148 28.6648 5.55742 28.5693 5.57031C28.345 5.59872 28.1398 5.64684 27.9541 5.71387C27.7709 5.781 27.6227 5.87746 27.5117 6.00391C27.4035 6.12782 27.3496 6.29361 27.3496 6.5C27.3496 6.78636 27.4556 7.00323 27.667 7.15039C27.8786 7.29493 28.1488 7.36711 28.4766 7.36719C28.7966 7.36719 29.0707 7.30414 29.2979 7.17773C29.5276 7.05124 29.7015 6.88554 29.8203 6.68164C29.9417 6.47506 30.0029 6.25452 30.0029 6.01953V5.25293ZM60.8721 5.25293C60.8306 5.29406 60.7501 5.33314 60.6318 5.36914C60.5159 5.4026 60.3828 5.43225 60.2334 5.45801C60.0839 5.4812 59.9376 5.50282 59.7959 5.52344C59.6542 5.54147 59.5348 5.55742 59.4395 5.57031C59.215 5.59872 59.009 5.64677 58.8232 5.71387C58.6402 5.78097 58.4928 5.87757 58.3818 6.00391C58.2735 6.12783 58.2188 6.29354 58.2188 6.5C58.2188 6.78624 58.3249 7.00324 58.5361 7.15039C58.7477 7.29487 59.0182 7.36705 59.3457 7.36719C59.6656 7.36719 59.9399 7.30404 60.167 7.17773C60.3967 7.05124 60.5716 6.88555 60.6904 6.68164C60.8117 6.47513 60.8721 6.25442 60.8721 6.01953V5.25293ZM76.1582 5.25293C76.1168 5.29414 76.0365 5.33307 75.918 5.36914C75.8019 5.40266 75.6682 5.43222 75.5186 5.45801C75.369 5.4812 75.2228 5.50281 75.0811 5.52344C74.9393 5.54149 74.82 5.55742 74.7246 5.57031C74.5003 5.59871 74.295 5.64685 74.1094 5.71387C73.9262 5.781 73.778 5.87746 73.667 6.00391C73.5587 6.12782 73.5049 6.29359 73.5049 6.5C73.5049 6.78637 73.6108 7.00323 73.8223 7.15039C74.0339 7.29493 74.3041 7.36712 74.6318 7.36719C74.9519 7.36719 75.226 7.30414 75.4531 7.17773C75.6828 7.05125 75.8568 6.88553 75.9756 6.68164C76.0969 6.47507 76.1582 6.25451 76.1582 6.01953V5.25293ZM94.1602 5.25293C94.1188 5.29414 94.0384 5.33307 93.9199 5.36914C93.8038 5.40266 93.6701 5.43222 93.5205 5.45801C93.371 5.48121 93.2248 5.50281 93.083 5.52344C92.9412 5.54149 92.822 5.55742 92.7266 5.57031C92.5023 5.59871 92.297 5.64685 92.1113 5.71387C91.9282 5.781 91.7799 5.87746 91.6689 6.00391C91.5607 6.12782 91.5068 6.29359 91.5068 6.5C91.5069 6.78638 91.6128 7.00323 91.8242 7.15039C92.0359 7.29493 92.306 7.36712 92.6338 7.36719C92.9538 7.36718 93.2279 7.30414 93.4551 7.17773C93.6848 7.05125 93.8588 6.88553 93.9775 6.68164C94.0989 6.47507 94.1602 6.2545 94.1602 6.01953V5.25293ZM35.1826 3.40527C34.9402 3.40533 34.7231 3.4481 34.5322 3.5332C34.3414 3.61578 34.1768 3.73796 34.04 3.90039C33.9059 4.06296 33.8014 4.26232 33.7266 4.49707C33.6543 4.72938 33.6155 4.99686 33.6104 5.29883C33.6104 5.9133 33.7509 6.40349 34.0322 6.76758C34.3162 7.13134 34.7041 7.31336 35.1943 7.31348C35.5169 7.31344 35.795 7.23185 36.0273 7.06934C36.2622 6.90411 36.4428 6.67012 36.5693 6.36816C36.6959 6.06604 36.7588 5.7094 36.7588 5.29883C36.7588 4.89609 36.6958 4.55388 36.5693 4.27246C36.4429 3.99128 36.2621 3.77702 36.0273 3.62988C35.7924 3.48026 35.5104 3.40529 35.1826 3.40527ZM41.7324 3.10645C41.3686 3.10656 41.0662 3.2039 40.8262 3.39746C40.5888 3.59106 40.412 3.84802 40.2959 4.16797C40.1823 4.48555 40.125 4.83432 40.125 5.21387C40.125 5.59598 40.1823 5.94609 40.2959 6.26367C40.412 6.58101 40.5889 6.83536 40.8262 7.02637C41.0662 7.21735 41.3686 7.31337 41.7324 7.31348C42.0938 7.31348 42.3933 7.21726 42.6309 7.02637C42.8684 6.83531 43.0446 6.58121 43.1582 6.26367C43.2744 5.94605 43.332 5.59604 43.332 5.21387C43.332 4.83427 43.2744 4.48559 43.1582 4.16797C43.0446 3.84783 42.8684 3.59111 42.6309 3.39746C42.3933 3.20399 42.0938 3.10645 41.7324 3.10645ZM22.4492 3.12207C22.1139 3.12219 21.8299 3.20902 21.5977 3.38184C21.368 3.55484 21.193 3.7967 21.0742 4.10645C20.9556 4.41615 20.8965 4.77759 20.8965 5.19043C20.8965 5.6087 20.9568 5.97601 21.0781 6.29102C21.1994 6.60581 21.3758 6.85216 21.6055 7.03027C21.8351 7.20567 22.1165 7.29382 22.4492 7.29395C22.7951 7.29395 23.085 7.20175 23.3174 7.01855C23.5496 6.83271 23.725 6.58101 23.8438 6.26367C23.9651 5.94605 24.0264 5.58811 24.0264 5.19043C24.0264 4.79799 23.9664 4.44522 23.8477 4.13281C23.7315 3.82071 23.556 3.5742 23.3213 3.39355C23.0889 3.21294 22.7977 3.12207 22.4492 3.12207ZM2.41016 4.36133H3.92871C4.31836 4.3613 4.63528 4.29428 4.87793 4.16016C5.12041 4.02335 5.29854 3.83732 5.41211 3.60254C5.52572 3.36757 5.58202 3.1003 5.58203 2.80078C5.58203 2.50129 5.52569 2.2353 5.41211 2.00293C5.29856 1.77076 5.11904 1.58868 4.87402 1.45703C4.63134 1.32547 4.31054 1.2588 3.91309 1.25879H2.41016V4.36133ZM80.6055 0.201172C80.6055 0.394752 80.6629 0.567074 80.7764 0.716797C80.8899 0.863832 81.0853 0.93742 81.3613 0.9375C81.6322 0.937445 81.8262 0.863788 81.9424 0.716797C82.0611 0.569642 82.1201 0.397355 82.1201 0.201172H83.0732C83.0732 0.6375 82.9182 0.992898 82.6084 1.2666C82.3012 1.53754 81.8853 1.67378 81.3613 1.67383C80.8399 1.67375 80.4244 1.53767 80.1172 1.2666C79.8103 0.992951 79.6562 0.63729 79.6562 0.201172H80.6055Z" fill="#6a7282"/><script xmlns=""/></svg>